Coordinates
version=1
nRows=19
nColumns=18
inDegrees=yes

Units are S.I. units (second, meters, Newtons, ...)
If the header above contains a line with 'inDegrees', this indicates whether rotational values are in degrees (yes) or radians (no).

endheader
time	ground_thorax_rot_x	ground_thorax_rot_y	ground_thorax_rot_z	ground_thorax_tx	ground_thorax_ty	ground_thorax_tz	clav_prot	clav_elev	scapula_abduction	scapula_elevation	scapula_upward_rot	scapula_winging	plane_elv	shoulder_elv	axial_rot	elbow_flexion	pro_sup
      0.00000000	      0.93092501	     -7.85766305	    -11.54795832	      0.00000000	      0.00000000	      0.00000000	    -17.88964591	     -3.83304119	     -3.64430212	     -3.76247721	     14.34082560	      4.38001689	    -18.30126557	     15.86714586	     33.39222251	      0.00000000	     34.32000000
      0.01000000	      0.96661469	     -7.85089511	    -11.49656221	      0.00000000	      0.00000000	      0.00000000	    -17.89434009	     -3.81703886	     -3.63199899	     -3.76136248	     14.38259980	      4.36617818	    -18.28548069	     15.91893549	     33.42213498	      0.00000000	     34.32000000
      0.02000000	      1.12609653	     -7.97244037	    -11.38499155	      0.00000000	      0.00000000	      0.00000000	    -17.78482185	     -3.67579500	     -3.46906730	     -3.65003253	     14.38989259	      4.30263056	    -18.26207423	     16.08690985	     33.41460117	      0.00000000	     34.32000000
      0.03000000	      1.26469202	     -7.99186926	    -11.45369441	      0.00000000	      0.00000000	      0.00000000	    -17.82260598	     -3.53554123	     -3.36546641	     -3.63340901	     14.73189591	      4.18034493	    -18.86501955	     15.85167252	     34.23916560	      0.00000000	     34.32000000
      0.04000000	      1.24222376	     -7.97909847	    -11.45074824	      0.00000000	      0.00000000	      0.00000000	    -17.82390223	     -3.52124373	     -3.36661017	     -3.62471380	     14.73991057	      4.17502701	    -18.85400268	     15.88429629	     34.25655868	      0.00000000	     34.32000000
      0.05000000	      1.26186472	     -8.00020254	    -11.35422081	      0.00000000	      0.00000000	      0.00000000	    -17.75983966	     -3.44828829	     -3.30557563	     -3.55127702	     14.68306546	      4.15683107	    -18.90320857	     15.97987218	     34.55848482	      0.00000000	     34.32000000
      0.06000000	      1.20292209	     -8.07994286	    -11.43970803	      0.00000000	      0.00000000	      0.00000000	    -17.70564025	     -3.50538219	     -3.12248853	     -3.62387925	     14.80666692	      4.13102359	    -19.14915679	     15.86656485	     34.77806022	      0.00000000	     34.32000000
      0.07000000	      1.18112423	     -8.09045507	    -11.52386882	      0.00000000	      0.00000000	      0.00000000	    -17.70216120	     -3.62334335	     -3.16573237	     -3.67991398	     14.67635160	      4.19792164	    -18.35974268	     16.37559178	     29.94813250	      0.00000000	     34.32000000
      0.08000000	      1.53033878	     -8.52188538	    -11.34270856	      0.00000000	      0.00000000	      0.00000000	    -17.32093750	     -2.99598148	     -2.30906094	     -3.32879150	     15.24005713	      3.80086997	    -19.44243285	     15.53027400	     37.34839794	      0.00000000	     34.32000000
      0.09000000	      1.54110185	     -8.55391337	    -11.34647613	      0.00000000	      0.00000000	      0.00000000	    -17.33124543	     -3.00690427	     -2.33102610	     -3.33476618	     15.22899724	      3.80896735	    -19.43509432	     15.52627235	     37.35764472	      0.00000000	     34.32000000
      0.10000000	      1.34338070	     -8.36626483	    -11.39939875	      0.00000000	      0.00000000	      0.00000000	    -17.49459203	     -3.29050402	     -2.71218019	     -3.48888354	     14.95843299	      3.99011133	    -19.20811992	     15.66459642	     36.41065328	      0.00000000	     34.32000000
      0.11000000	      1.22282682	     -8.18633151	    -11.41464139	      0.00000000	      0.00000000	      0.00000000	    -17.66387674	     -3.43205255	     -3.06391946	     -3.56710407	     14.81115669	      4.10077491	    -18.87200337	     15.78226977	     34.58898452	      0.00000000	     34.32000000
      0.12000000	      1.32078948	     -8.26460157	    -11.40565672	      0.00000000	      0.00000000	      0.00000000	    -17.56096908	     -3.32312456	     -2.77011211	     -3.53887956	     15.04368751	      3.99009456	    -19.81982774	     15.52629030	     37.57146796	      0.00000000	     34.32000000
      0.13000000	      1.31378395	     -8.22240612	    -11.38856766	      0.00000000	      0.00000000	      0.00000000	    -17.55482100	     -3.32303400	     -2.75701827	     -3.53946637	     15.04726636	      3.98795987	    -19.80520346	     15.50765739	     37.57921655	      0.00000000	     34.32000000
      0.14000000	      1.22444074	     -8.22151069	    -11.39396882	      0.00000000	      0.00000000	      0.00000000	    -17.52552108	     -3.37483905	     -2.77081565	     -3.54399821	     14.91731203	      4.03059472	    -19.49738809	     15.64287639	     36.23271801	      0.00000000	     34.32000000
      0.15000000	      1.26054289	     -8.24211898	    -11.40337290	      0.00000000	      0.00000000	      0.00000000	    -17.52254665	     -3.27648821	     -2.72407017	     -3.49707789	     15.02632654	      3.97400421	    -19.45766660	     15.55462662	     36.05574029	      0.00000000	     34.32000000
      0.16000000	      1.33027964	     -8.27450090	    -11.40395135	      0.00000000	      0.00000000	      0.00000000	    -17.58447221	     -3.17971879	     -2.77716957	     -3.46083036	     15.15920370	      3.92438745	    -19.78195272	     15.11762743	     40.53433562	      0.00000000	     34.32000000
      0.17000000	      1.34265367	     -8.32994011	    -11.40784918	      0.00000000	      0.00000000	      0.00000000	    -17.53193910	     -3.20628029	     -2.66766428	     -3.48265395	     15.17618759	      3.91728274	    -19.86302275	     15.11432284	     40.91643136	      0.00000000	     34.32000000
      0.18000000	      1.25786440	     -8.26495188	    -11.48654998	      0.00000000	      0.00000000	      0.00000000	    -17.59541237	     -3.41496322	     -2.85879995	     -3.58887994	     14.95955097	      4.04451360	    -19.02764778	     15.50563374	     37.41988554	      0.00000000	     34.32000000
